<svg width="106" height="40" viewBox="0 0 106 40" fill="none" xmlns="http://www.w3.org/2000/svg">
<path d="M29.4527 27.0615L22.9098 8.37357C21.8246 4.98472 19.014 2.56412 15.3812 2.56412C11.7856 2.56412 8.99783 4.95806 7.8794 8.26895L1.3076 27.0615C0.661393 28.8831 1.11291 30.879 2.79676 31.8411C4.47855 32.8032 6.41302 32.2022 7.71992 30.7272L15.3812 22.0726L23.0424 30.7272C24.341 32.2022 26.2838 32.8032 27.9656 31.8411C29.6474 30.879 30.1175 28.8954 29.4547 27.0615H29.4527Z" fill="#40C3FF"/>
<path d="M46.854 12.2135H44.4216V7.67411C44.4216 6.44077 43.9363 5.8241 42.9656 5.8241C42.4974 5.8241 42.1262 6.00682 41.8522 6.37226C41.5781 6.73769 41.441 7.17735 41.441 7.69124V12.2135H38.9744V3.75141H41.304V4.71067C41.738 3.94555 42.4802 3.56298 43.5309 3.56298C44.7071 3.56298 45.5293 4.08829 45.9975 5.13892C46.3744 4.56793 46.7798 4.16252 47.2138 3.92271C47.6477 3.67147 48.1787 3.54585 48.8068 3.54585C49.8118 3.54585 50.6226 3.85419 51.2392 4.47086C51.8673 5.08753 52.1814 6.12673 52.1814 7.58846V12.2135H49.6976V7.63985C49.6976 6.46361 49.2693 5.87549 48.4128 5.87549C47.9446 5.87549 47.5678 6.0525 47.2823 6.40651C46.9968 6.74911 46.854 7.17164 46.854 7.67411V12.2135Z" fill="#9E9E9E"/>
<path d="M62.018 7.69124C62.018 8.05668 61.9837 8.41069 61.9152 8.75328H55.9883C56.0568 9.24434 56.2966 9.63261 56.7078 9.9181C57.1189 10.1922 57.5814 10.3292 58.0953 10.3292C58.9632 10.3292 59.7283 10.0666 60.3906 9.54125L61.5383 11.1343C60.659 11.9794 59.4656 12.4019 57.9582 12.4019C56.5878 12.4019 55.463 12.0251 54.5837 11.2714C53.7158 10.5062 53.2818 9.41563 53.2818 7.99958C53.2818 6.60636 53.7272 5.52148 54.6179 4.74493C55.5201 3.95697 56.5993 3.56298 57.8554 3.56298C59.0888 3.56298 60.088 3.92842 60.8531 4.65928C61.6297 5.37873 62.018 6.38938 62.018 7.69124ZM59.0031 6.01253C58.6834 5.72704 58.278 5.58429 57.7869 5.58429C57.2959 5.58429 56.8848 5.72704 56.5536 6.01253C56.2224 6.28661 56.034 6.69201 55.9883 7.22874H59.4656C59.4771 6.69201 59.3229 6.28661 59.0031 6.01253Z" fill="#9E9E9E"/>
<path d="M63.1461 0.23982H65.6128V7.07457L68.1137 3.76854H71.0258V3.92271L67.9253 7.74263L71.5054 12.0251V12.2135H68.542L65.6128 8.49634V12.2135H63.1461V0.23982Z" fill="#9E9E9E"/>
<path d="M75.6226 3.56298C77.0386 3.56298 78.1064 3.83135 78.8258 4.36808C79.5567 4.89339 79.9221 5.73846 79.9221 6.90328V12.2135H77.5582V10.6718H77.5068C77.2784 11.1857 76.9073 11.5968 76.3934 11.9052C75.8795 12.2135 75.2914 12.3677 74.629 12.3677C73.7611 12.3677 73.0417 12.1221 72.4707 11.6311C71.8997 11.1286 71.6142 10.4605 71.6142 9.6269C71.6142 8.74757 71.9283 8.06239 72.5563 7.57133C73.1959 7.08028 74.0181 6.83476 75.023 6.83476C75.9023 6.83476 76.6389 6.98321 77.2328 7.28013V7.10883C77.2328 6.10389 76.5818 5.60142 75.28 5.60142C74.5034 5.60142 73.6469 5.7613 72.7105 6.08105L72.2137 4.21391C73.3101 3.77996 74.4463 3.56298 75.6226 3.56298ZM75.4855 10.295C75.9537 10.295 76.3534 10.1693 76.6846 9.9181C77.0158 9.66687 77.2156 9.31856 77.2841 8.87319C76.7588 8.59912 76.1936 8.46208 75.5883 8.46208C75.1886 8.46208 74.8689 8.54202 74.629 8.7019C74.4006 8.86177 74.2864 9.09588 74.2864 9.40421C74.2864 9.68971 74.4006 9.91239 74.629 10.0723C74.8574 10.2207 75.1429 10.295 75.4855 10.295Z" fill="#9E9E9E"/>
<path d="M81.5801 3.76854H84.0639V4.69354C84.6006 3.93984 85.3543 3.56298 86.325 3.56298C87.1244 3.56298 87.8153 3.81993 88.3977 4.33382L87.3699 6.28661C86.9702 6.00111 86.5192 5.85836 86.0167 5.85836C85.4571 5.85836 84.9889 6.03537 84.612 6.38939C84.2352 6.73198 84.0468 7.2059 84.0468 7.81115V12.2135H81.5801V3.76854Z" fill="#9E9E9E"/>
<path d="M91.4571 3.73428H88.9904V12.2135H91.4571V3.73428ZM89.2474 2.5352C88.9619 2.28397 88.8191 1.94137 88.8191 1.50742C88.8191 1.07347 88.9619 0.730872 89.2474 0.479636C89.5443 0.228401 89.8697 0.102783 90.2238 0.102783C90.5778 0.102783 90.8975 0.228401 91.183 0.479636C91.4799 0.730872 91.6284 1.07347 91.6284 1.50742C91.6284 1.94137 91.4799 2.28397 91.183 2.5352C90.8975 2.78644 90.5778 2.91205 90.2238 2.91205C89.8697 2.91205 89.5443 2.78644 89.2474 2.5352Z" fill="#9E9E9E"/>
<path d="M42.6511 20.986H38.9768V34.4243C38.9768 36.1715 38.1288 36.6169 36.433 35.7604L35.3795 38.4583C36.2017 38.938 37.0411 39.2206 37.8976 39.3063C38.7541 39.3919 39.542 39.2891 40.2615 38.9979C40.9809 38.7067 41.5633 38.1586 42.0087 37.3535C42.4541 36.5484 42.6682 35.5377 42.6511 34.3215V20.986ZM39.3879 19.1874C38.9596 18.8106 38.7455 18.2967 38.7455 17.6457C38.7455 16.9948 38.9596 16.4809 39.3879 16.1041C39.8332 15.7272 40.3129 15.5388 40.8268 15.5388C41.3578 15.5388 41.8374 15.7272 42.2657 16.1041C42.711 16.4809 42.9337 16.9948 42.9337 17.6457C42.9337 18.2967 42.711 18.8106 42.2657 19.1874C41.8374 19.5643 41.3578 19.7527 40.8268 19.7527C40.3129 19.7527 39.8332 19.5643 39.3879 19.1874Z" fill="black"/>
<path d="M45.0445 21.0117H48.7702V27.718C48.7702 29.6879 49.6438 30.6729 51.391 30.6729C52.2304 30.69 52.9156 30.3902 53.4466 29.7736C53.9948 29.1569 54.2688 28.4203 54.2688 27.5638V21.0117H57.9175V33.7048H54.4487V32.0347C53.4723 33.3537 52.1019 33.996 50.3376 33.9618C46.8088 33.9618 45.0445 31.8891 45.0445 27.7437V21.0117Z" fill="black"/>
<path d="M60.5052 21.0374H64.2052L64.2309 22.4249C65.036 21.2944 66.1665 20.7291 67.6226 20.7291C68.8216 20.7291 69.858 21.1145 70.7316 21.8853L69.1899 24.8145C68.5904 24.3863 67.9138 24.1722 67.1601 24.1722C66.3207 24.1722 65.6184 24.4377 65.0531 24.9687C64.4878 25.4826 64.2052 26.1935 64.2052 27.1013V33.7048H60.5052V21.0374Z" fill="black"/>
<path d="M84.4937 33.7048H80.7679V26.9986C80.7679 25.0286 79.8943 24.0437 78.1471 24.0437C77.3077 24.0266 76.614 24.3263 76.0658 24.943C75.5348 25.5597 75.2693 26.2962 75.2693 27.1527V33.7048H71.6207V21.0117H75.0894V22.6305C76.1001 21.3115 77.4705 20.6691 79.2006 20.7034C82.7293 20.7034 84.4937 22.7932 84.4937 26.9729V33.7048Z" fill="black"/>
<path d="M92.0918 20.7291C94.2159 20.7291 95.8175 21.1316 96.8967 21.9367C97.993 22.7247 98.5411 23.9923 98.5411 25.7395V33.7048H94.9953V31.3923H94.9182C94.5756 32.1632 94.0189 32.7798 93.2481 33.2423C92.4772 33.7048 91.5951 33.9361 90.6015 33.9361C89.2997 33.9361 88.2205 33.5678 87.364 32.8312C86.5075 32.0775 86.0793 31.0754 86.0793 29.825C86.0793 28.506 86.5504 27.4782 87.4925 26.7416C88.4518 26.005 89.6851 25.6367 91.1925 25.6367C92.5115 25.6367 93.6164 25.8594 94.5071 26.3048V26.0479C94.5071 24.5404 93.5307 23.7867 91.5779 23.7867C90.4131 23.7867 89.1284 24.0266 87.7237 24.5062L86.9786 21.7055C88.6231 21.0546 90.3275 20.7291 92.0918 20.7291ZM91.8863 30.827C92.5886 30.827 93.1881 30.6386 93.6849 30.2618C94.1816 29.8849 94.4814 29.3625 94.5842 28.6944C93.7962 28.2833 92.9483 28.0777 92.0404 28.0777C91.4409 28.0777 90.9613 28.1976 90.6015 28.4375C90.2589 28.6773 90.0876 29.0284 90.0876 29.4909C90.0876 29.9192 90.2589 30.2532 90.6015 30.493C90.9441 30.7157 91.3724 30.827 91.8863 30.827Z" fill="black"/>
<path d="M101.079 15.7443H104.754V33.7048H101.079V15.7443Z" fill="black"/>
</svg>
