<svg width="329" height="183" viewBox="0 0 329 183" fill="none" xmlns="http://www.w3.org/2000/svg">
    <path d="M147.126 49.7294C155.221 48.4026 162.826 47.6445 169.248 43.6274H169.357L169.793 39.378C169.854 39.0481 169.837 38.7083 169.742 38.3864C169.648 38.0644 169.478 37.7694 169.248 37.5253C168.973 37.263 168.635 37.0754 168.267 36.9804L136.446 35.8906C135.996 35.9518 135.584 36.1726 135.284 36.5128C134.984 36.8529 134.816 37.2897 134.811 37.7433L133.067 54.6335C134.21 54.2526 137.734 51.2646 147.126 49.7294Z" fill="#37A1FF" />
    <path d="M132.957 70.9785L165.215 71.8504C165.664 71.7892 166.077 71.5683 166.377 71.2281C166.677 70.888 166.844 70.4512 166.849 69.9977L168.593 51.3638L168.375 51.4727C155.378 56.9597 143.079 54.4295 133.175 62.261C132.8 62.5358 132.469 62.8666 132.194 63.2418L131.65 68.472C131.597 68.8184 131.618 69.1722 131.712 69.5099C131.806 69.8475 131.97 70.1614 132.194 70.4308C132.194 70.7606 132.63 70.9785 132.957 70.9785Z" fill="#37A1FF" />
    <path d="M135.029 20.1987C134.525 20.1881 134.036 20.3765 133.669 20.7231C133.302 21.0698 133.086 21.5468 133.068 22.0513C133.028 22.3024 133.038 22.5589 133.099 22.8056C133.16 23.0524 133.27 23.2843 133.423 23.4877C133.576 23.6911 133.767 23.8617 133.987 23.9893C134.207 24.117 134.45 24.1992 134.702 24.231C135.207 24.2408 135.695 24.0521 136.062 23.7057C136.429 23.3592 136.645 22.8825 136.664 22.3783C136.726 21.8742 136.59 21.3658 136.285 20.9595C135.981 20.5532 135.531 20.2806 135.029 20.1987V20.1987Z" fill="#191919" />
    <path d="M111.163 87.3242V73.9214H34.2256V87.3242H63.6486C63.9872 86.8691 64.3501 86.4325 64.7356 86.0164C67.6982 82.9422 71.4749 83.9979 72.4729 87.3242H111.163ZM93.7246 78.1707C93.7455 78.0559 93.8061 77.952 93.8957 77.8772C93.9853 77.8025 94.0983 77.7615 94.2151 77.7615C94.3318 77.7615 94.4448 77.8025 94.5344 77.8772C94.6241 77.952 94.6846 78.0559 94.7055 78.1707C94.9756 79.3733 95.1917 82.7129 95.2504 83.1829C95.2322 83.3179 95.1835 83.4469 95.1079 83.5602C95.0324 83.6735 94.9321 83.7681 94.8145 83.8368C94.6086 83.9256 94.3842 83.963 94.1606 83.9458C94.0016 83.8767 93.8602 83.7727 93.747 83.6414C93.6337 83.5102 93.5516 83.3551 93.5066 83.1876C93.6715 82.0448 93.2887 79.7021 93.7265 78.1707H93.7246ZM99.5 77.6258C99.6202 77.6467 99.7332 77.6976 99.8285 77.7738C99.9238 77.85 99.9982 77.949 100.045 78.0617C100.261 78.927 100.045 79.9135 100.263 80.7863C100.263 81.2222 100.372 81.6581 100.372 82.094C100.372 82.639 100.59 83.2919 100.154 83.6188C100.046 83.7381 99.8981 83.8147 99.7382 83.8347C99.5783 83.8547 99.4165 83.8168 99.2821 83.7278C98.7371 83.4009 98.7371 82.639 98.7371 82.094C98.7371 81.6581 98.6281 81.2222 98.6281 80.7863C98.63 78.9194 98.4594 77.6258 99.5019 77.6258H99.5ZM103.86 78.2797C103.881 78.1574 103.942 78.0455 104.033 77.961C104.124 77.8765 104.24 77.824 104.363 77.8117C104.487 77.7993 104.611 77.8277 104.717 77.8926C104.823 77.9574 104.904 78.0551 104.949 78.1707C105.411 79.7659 105.666 81.4138 105.708 83.0739C105.693 83.3 105.596 83.513 105.436 83.6733C105.276 83.8337 105.063 83.9305 104.837 83.9458C103.699 83.9458 103.976 82.2855 103.747 80.6773C103.765 80.2746 103.728 79.8713 103.638 79.4785C103.752 79.1496 103.752 78.6066 103.861 78.2797H103.86Z" fill="#37A1FF" />
    <path d="M107.022 92.9902C99.0615 93.1542 78.9091 93.3693 76.7275 93.4262C76.6168 93.4335 76.5131 93.4826 76.4373 93.5635C76.3615 93.6445 76.3193 93.7512 76.3193 93.8621C76.3193 93.973 76.3615 94.0797 76.4373 94.1607C76.5131 94.2416 76.6168 94.2907 76.7275 94.298C84.4647 94.7339 104.735 94.7339 107.022 94.7339C107.244 94.7193 107.451 94.6211 107.603 94.4592C107.754 94.2973 107.839 94.0839 107.839 93.8621C107.839 93.6403 107.754 93.4268 107.603 93.2649C107.451 93.103 107.244 93.0048 107.022 92.9902V92.9902Z" fill="#191919" />
    <path d="M107.567 99.2022C103.643 99.2563 78.1436 99.3112 77.0499 99.3112C76.962 99.3079 76.8743 99.3223 76.7921 99.3536C76.7099 99.385 76.6349 99.4325 76.5715 99.4936C76.5081 99.5546 76.4577 99.6277 76.4233 99.7087C76.3888 99.7896 76.3711 99.8767 76.3711 99.9646C76.3711 100.053 76.3888 100.14 76.4233 100.221C76.4577 100.302 76.5081 100.375 76.5715 100.436C76.6349 100.497 76.7099 100.544 76.7921 100.576C76.8743 100.607 76.962 100.621 77.0499 100.618C79.0098 100.85 105.387 100.509 107.567 100.727C108.548 100.946 108.657 99.1871 107.567 99.2022Z" fill="#191919" />
    <path d="M107.675 104.868C99.7196 104.922 78.2518 105.086 77.1581 105.304C77.0038 105.33 76.8637 105.411 76.7628 105.53C76.6618 105.65 76.6064 105.801 76.6064 105.958C76.6064 106.115 76.6618 106.266 76.7628 106.386C76.8637 106.505 77.0038 106.586 77.1581 106.612C79.1199 106.721 105.495 106.394 107.675 106.394C108.547 106.285 108.547 104.862 107.675 104.868Z" fill="#191919" />
    <path d="M39.6751 67.6006C38.9169 67.6006 38.9169 68.6904 39.6751 68.7994C40.9829 68.9083 106.804 68.5814 107.022 68.5814C108.003 68.5814 108.003 67.0557 107.022 67.1599C103.862 67.1646 39.8931 67.6006 39.6751 67.6006Z" fill="#191919" />
    <path d="M68.9893 133.64C97.7584 133.967 133.936 134.511 139.279 134.62C140.15 134.638 141.022 134.729 141.785 134.729C148.671 135.135 153.631 135.334 159.439 131.461C165.978 127.101 183.303 113.044 186.247 107.27C188.86 102.146 192.429 71.1967 194.856 50.7139C195.18 47.9894 195.497 45.4818 195.728 43.4169C197.683 25.9685 195.837 21.0785 185.92 19.3348C184.722 19.0079 183.421 18.7549 181.889 18.463C176.676 17.4717 125.222 16.3923 101.246 16.2834C80.1506 16.1886 78.8172 22.0641 77.7074 32.5197C77.3956 35.4508 77.8098 32.6666 73.4569 59.8712H55.1487C54.8886 59.8712 54.6391 59.9745 54.4551 60.1584C54.2712 60.3424 54.1678 60.5919 54.1678 60.852C54.1678 61.1121 54.2712 61.3616 54.4551 61.5456C54.6391 61.7295 54.8886 61.8328 55.1487 61.8328H104.625C106.703 61.8426 108.693 62.6723 110.162 64.1415C111.631 65.6108 112.461 67.6007 112.471 69.6786V105.53C112.461 107.607 111.631 109.597 110.162 111.066C108.692 112.536 106.703 113.365 104.625 113.375H72.585C73.2389 113.375 73.2389 96.8121 73.2389 95.2863C73.2389 91.7989 74.0246 86.3072 70.3009 84.3882C67.9174 83.1619 65.7414 84.5123 64.1976 86.3499C63.5513 87.1194 60.6019 92.7788 60.057 92.7788C57.5503 92.9968 40.659 93.1058 39.3511 93.1058C39.2405 93.1131 39.1368 93.1622 39.061 93.2431C38.9852 93.3241 38.943 93.4308 38.943 93.5417C38.943 93.6526 38.9852 93.7593 39.061 93.8403C39.1368 93.9212 39.2405 93.9703 39.3511 93.9776C44.9095 94.5225 58.2042 94.4135 59.0761 94.4135C58.3179 95.9393 57.5503 97.356 56.7874 98.8818C54.9346 98.9908 42.7298 98.7728 39.4601 99.0997C39.3061 99.1045 39.158 99.1606 39.0395 99.2592C38.921 99.3577 38.8389 99.4931 38.8062 99.6437C38.7872 99.8002 38.8194 99.9586 38.898 100.095C38.9766 100.232 39.0973 100.34 39.2422 100.402C40.2373 100.651 52.1814 100.402 56.0244 100.402C55.3705 101.823 54.7166 103.126 54.0627 104.543C51.7748 104.543 41.8626 104.455 39.3511 104.979C38.8071 105.093 38.6972 106.069 39.3511 106.178C40.659 106.396 51.2299 106.069 53.3007 106.069C52.8647 106.069 49.9344 112.179 49.3771 113.043C48.7374 114.033 43.2747 113.37 42.0796 113.37C40.0017 113.36 38.0116 112.53 36.5423 111.061C35.0729 109.592 34.2432 107.602 34.2334 105.524V69.6729C34.2429 67.595 35.0726 65.6049 36.542 64.1356C38.0114 62.6663 40.0016 61.8366 42.0796 61.8271H45.4497C45.7099 61.8271 45.9594 61.7238 46.1433 61.5399C46.3273 61.3559 46.4306 61.1065 46.4306 60.8463C46.4306 60.5862 46.3273 60.3367 46.1433 60.1528C45.9594 59.9688 45.7099 59.8655 45.4497 59.8655H42.0721C39.4731 59.873 36.9828 60.9087 35.145 62.7463C33.3073 64.5839 32.2716 67.0741 32.2641 69.6729V80.4592C32.2641 81.0041 30.8472 82.4199 30.5203 82.8558C29.8663 83.7277 29.3214 84.7085 28.6675 85.5804C25.3059 91.0825 21.2686 97.2698 18.0975 105.74C15.7282 112.07 16.3783 119.359 17.0076 126.008C18.271 139.258 20.2719 152.428 23.001 165.455C23.3422 167.087 24.8538 166 24.6358 164.801C21.9045 149.778 19.4641 134.533 18.4245 118.271C17.7819 108.233 22.2059 99.5603 27.2516 90.9204C28.6551 88.5153 30.1895 84.7085 32.2641 82.8558C32.482 90.3755 32.2641 98.0033 32.2641 105.631C32.2647 107.779 32.9679 109.868 34.2665 111.579C35.5651 113.29 37.3877 114.529 39.4563 115.108C41.0675 115.541 41.928 115.435 47.7385 115.435C47.8475 116.197 48.4967 116.197 49.0464 115.653C57.6033 104.956 62.9968 85.0734 68.8803 85.6855C72.9138 86.1054 71.6041 95.057 71.6041 97.6726C71.6126 105.772 70.9934 113.86 69.7522 121.864C67.9695 133.208 64.1692 147.735 52.425 152.702C51.6801 153.037 50.9159 153.329 50.1362 153.573C49.1553 153.791 49.596 155.338 50.5722 155.099C53.7714 154.356 56.7321 152.82 59.1813 150.632C58.5274 151.177 59.1586 156.08 59.1813 157.061C59.2524 159.474 59.5058 161.878 59.9395 164.253C60.1726 165.558 61.6966 166.321 61.4653 164.362C61.1564 161.744 60.7071 159.239 60.5934 156.625C60.4882 154.227 60.4844 151.721 60.3754 149.328C64.4756 144.874 67.4317 139.49 68.9893 133.64V133.64ZM104.624 59.9764H84.1368L88.6043 29.4616C88.7006 28.6768 89.0923 27.9582 89.6997 27.452C90.3072 26.9459 91.0847 26.6902 91.874 26.737L177.965 28.9167C178.876 28.9539 179.736 29.3449 180.363 30.0065C180.937 30.7088 181.211 31.6091 181.126 32.5121L173.498 92.5542C173.412 93.3327 173.042 94.0521 172.459 94.5749C171.876 95.0977 171.12 95.3871 170.337 95.3877L114.541 94.2979V69.8889C114.545 68.5855 114.292 67.2941 113.795 66.089C113.298 64.8839 112.568 63.789 111.646 62.8673C110.725 61.9456 109.63 61.2153 108.425 60.7185C107.22 60.2217 105.928 59.9682 104.625 59.9726L104.624 59.9764ZM72.367 115.547H104.625C107.223 115.54 109.714 114.504 111.551 112.666C113.389 110.829 114.424 108.339 114.432 105.74V95.4967L170.228 96.5865C171.329 96.6105 172.398 96.2208 173.226 95.4944C174.053 94.768 174.578 93.7577 174.696 92.6632L182.325 32.6192C182.397 31.9982 182.339 31.369 182.154 30.7717C181.969 30.1744 181.662 29.6223 181.252 29.1505C180.841 28.6788 180.337 28.2979 179.771 28.0321C179.205 27.7663 178.59 27.6215 177.965 27.607L91.874 25.4274C90.7657 25.4174 89.6913 25.8094 88.8499 26.5308C88.0084 27.2521 87.4569 28.254 87.2974 29.3507L82.8289 60.0816H74.8766C75.3845 56.94 78.603 36.8316 79.0181 32.948C79.5299 28.15 80.0293 24.3736 82.8318 21.8329C85.9175 19.0373 91.5508 17.8157 101.358 17.9105C128.057 18.1673 176.885 19.1766 181.783 19.9811C190.622 21.432 193.155 22.6848 191.26 39.8129C191.019 41.9925 190.706 44.3892 190.388 47.1099C188.148 66.2812 184.396 98.3264 181.997 103.229C179.275 108.788 161.933 122.717 155.624 126.984C150.166 130.675 145.604 130.198 138.733 130.035C117.96 129.541 82.284 129.088 70.2962 128.945C70.6232 127.524 70.8411 126.112 71.1672 124.805C71.6041 121.54 72.04 118.598 72.367 115.547Z" fill="#191919" />
    <path d="M156.28 82.6387C156.388 81.4399 156.497 80.3501 156.715 79.1513C156.715 78.7154 156.824 78.1705 156.824 77.7298C158.093 77.9096 159.274 78.4811 160.202 79.3646C160.296 79.4563 160.42 79.5113 160.551 79.5198C160.682 79.5282 160.812 79.4895 160.918 79.4106C161.023 79.3317 161.096 79.2178 161.125 79.0895C161.154 78.9611 161.135 78.8268 161.074 78.7107C160.656 77.9977 160.071 77.3974 159.369 76.962C158.666 76.5265 157.869 76.2689 157.044 76.2117V75.4535C157.044 75.3174 156.993 75.1863 156.901 75.0856C156.81 74.9848 156.684 74.9216 156.548 74.908C156.413 74.8945 156.277 74.9316 156.168 75.0122C156.058 75.0928 155.982 75.2112 155.954 75.3446C155.845 75.6715 155.845 75.8895 155.737 76.2164C153.339 76.3254 150.246 77.9459 150.832 80.7936C151.187 82.5108 152.943 83.7219 154.647 84.0621C154.161 88.9123 154.211 88.3266 154.211 88.4214C153.08 88.0916 152.012 87.576 151.05 86.8956C150.287 86.4597 149.296 87.559 150.069 88.2034C151.267 89.1232 152.639 89.7905 154.102 90.1651C154.079 90.5679 154.115 90.9719 154.211 91.3639C154.267 91.4744 154.353 91.5672 154.459 91.632C154.564 91.6968 154.686 91.7311 154.81 91.7311C154.934 91.7311 155.056 91.6968 155.162 91.632C155.267 91.5672 155.353 91.4744 155.41 91.3639C155.583 91.108 155.66 90.7993 155.628 90.492C156.313 90.601 157.012 90.601 157.697 90.492C161.133 89.9187 162.346 87.2558 161.403 85.3699C160.42 83.0737 158.24 82.8558 156.28 82.6387ZM152.356 80.1322C152.343 79.6941 152.475 79.264 152.733 78.9091C152.99 78.5542 153.357 78.2945 153.778 78.1705C154.304 77.9368 154.851 77.7543 155.412 77.6256C155.303 78.0615 155.303 78.4974 155.194 78.8244C154.976 79.9142 154.867 81.113 154.759 82.2028C154.699 82.2102 154.639 82.2042 154.583 82.1853C154.526 82.1665 154.474 82.1352 154.432 82.0938C153.929 82.0118 153.463 81.781 153.093 81.4313C152.723 81.0817 152.466 80.6291 152.356 80.1322V80.1322ZM158.895 88.0869C157.885 88.5914 156.746 88.7812 155.627 88.6318C155.627 88.2195 156.052 84.4763 156.062 84.3815C156.389 84.3815 156.825 84.4905 157.152 84.4905C158.023 84.5995 159.44 84.8174 159.767 85.7983C160.311 86.5611 159.657 87.542 158.894 88.0869H158.895Z" fill="#37A1FF" />
    <path d="M133.939 78.2795C132.935 80.009 133.067 82.4208 133.067 84.3815C133.077 84.5772 133.162 84.7617 133.304 84.8968C133.446 85.0319 133.634 85.1073 133.83 85.1073C134.026 85.1073 134.215 85.0319 134.357 84.8968C134.499 84.7617 134.583 84.5772 134.593 84.3815C134.593 82.5297 135.138 80.3501 134.92 78.4974C134.916 78.3827 134.873 78.2726 134.8 78.1844C134.726 78.0962 134.626 78.0348 134.514 78.0099C134.402 77.985 134.284 77.998 134.18 78.0467C134.077 78.0955 133.992 78.1773 133.939 78.2795V78.2795Z" fill="#37A1FF" />
    <path d="M138.846 78.1704C138.628 78.1704 138.301 78.2794 138.301 78.6063C137.974 80.35 137.321 83.0736 137.756 84.8173C138.083 86.1251 139.282 84.8173 139.282 84.0592C139.391 82.3164 139.391 80.5727 139.391 78.7201C139.277 78.3912 139.169 78.1704 138.846 78.1704Z" fill="#37A1FF" />
    <path d="M143.093 78.4974C142.583 80.5628 142.399 82.6951 142.548 84.8173C142.548 85.0197 142.628 85.2137 142.771 85.3568C142.914 85.4998 143.109 85.5802 143.311 85.5802C143.513 85.5802 143.707 85.4998 143.85 85.3568C143.993 85.2137 144.074 85.0197 144.074 84.8173C144.183 82.7467 144.292 80.677 144.292 78.7153C144.183 78.0614 143.202 77.8435 143.093 78.4974Z" fill="#37A1FF" />
    <path d="M95.1431 39.7039C96.342 39.7039 126.962 40.4128 129.798 40.462C129.995 40.4551 130.182 40.3717 130.32 40.2295C130.457 40.0873 130.534 39.8973 130.534 39.6996C130.534 39.502 130.457 39.312 130.32 39.1698C130.182 39.0276 129.995 38.9442 129.798 38.9373C121.794 38.8927 93.5538 38.0663 91.4375 38.3923C91.3648 38.3879 91.292 38.399 91.2238 38.4248C91.1557 38.4506 91.0938 38.4906 91.0423 38.5421C90.9908 38.5936 90.9508 38.6555 90.925 38.7236C90.8992 38.7917 90.8881 38.8645 90.8926 38.9373C91.3058 39.3552 90.6082 39.7039 95.1431 39.7039Z" fill="#37A1FF" />
    <path d="M89.9116 47.7683C91.5389 48.0393 127.726 48.8571 129.147 48.8571C129.326 48.844 129.493 48.7638 129.615 48.6325C129.738 48.5012 129.805 48.3285 129.805 48.1492C129.805 47.97 129.738 47.7973 129.615 47.666C129.493 47.5347 129.326 47.4544 129.147 47.4413C123.107 47.3096 93.4419 46.2094 90.1334 46.6832C89.4709 46.7704 89.2577 47.6593 89.9116 47.7683Z" fill="#37A1FF" />
    <path d="M127.509 56.4863C127.705 56.4766 127.889 56.3919 128.024 56.2499C128.159 56.1079 128.235 55.9195 128.235 55.7235C128.235 55.5275 128.159 55.339 128.024 55.197C127.889 55.055 127.705 54.9703 127.509 54.9606C122.605 54.6336 92.3009 54.2442 89.5848 54.6336C89.5185 54.6307 89.4524 54.6413 89.3904 54.6646C89.3283 54.6879 89.2716 54.7236 89.2238 54.7694C89.1759 54.8152 89.1378 54.8703 89.1117 54.9312C89.0857 54.9922 89.0723 55.0578 89.0723 55.1241C89.0723 55.1903 89.0857 55.2559 89.1117 55.3169C89.1378 55.3778 89.1759 55.4329 89.2238 55.4787C89.2716 55.5245 89.3283 55.5602 89.3904 55.5835C89.4524 55.6069 89.5185 55.6174 89.5848 55.6145C92.0915 55.8324 102.008 55.804 104.406 55.8324C109.42 55.8865 124.783 56.4314 127.509 56.4863Z" fill="#37A1FF" />
    <path d="M155.516 105.522C156.423 105.577 157.333 105.577 158.24 105.522C158.38 105.498 158.512 105.441 158.626 105.356C158.74 105.271 158.833 105.16 158.897 105.033C158.96 104.906 158.993 104.766 158.992 104.623C158.992 104.481 158.958 104.341 158.893 104.214C158.263 103.218 156.714 103.343 155.734 103.451C154.754 103.56 152.879 103.331 152.356 104.323C152.292 104.446 152.268 104.585 152.288 104.722C152.307 104.859 152.369 104.986 152.465 105.086C152.9 105.631 154.426 105.522 155.516 105.522Z" fill="#191919" />
    <path d="M143.53 105.522C144.437 105.577 145.347 105.577 146.254 105.522C146.394 105.498 146.527 105.44 146.641 105.356C146.755 105.271 146.847 105.16 146.911 105.033C146.974 104.906 147.007 104.766 147.007 104.623C147.006 104.481 146.972 104.341 146.908 104.214C146.278 103.218 144.728 103.343 143.748 103.451C142.767 103.56 140.893 103.331 140.369 104.323C140.306 104.446 140.282 104.585 140.302 104.722C140.321 104.859 140.383 104.986 140.478 105.086C140.914 105.631 142.44 105.522 143.53 105.522Z" fill="#191919" />
    <path d="M131.54 105.522C132.448 105.577 133.358 105.577 134.265 105.522C134.405 105.498 134.538 105.441 134.652 105.356C134.766 105.271 134.858 105.16 134.922 105.033C134.986 104.906 135.018 104.766 135.018 104.623C135.017 104.481 134.983 104.341 134.919 104.214C134.289 103.218 132.739 103.343 131.758 103.451C130.778 103.56 128.904 103.331 128.381 104.323C128.317 104.446 128.294 104.585 128.313 104.722C128.333 104.859 128.395 104.986 128.49 105.086C128.926 105.631 130.452 105.522 131.54 105.522Z" fill="#191919" />
    <path d="M149.305 111.951C150.212 112.005 151.122 112.005 152.029 111.951C152.169 111.926 152.302 111.869 152.416 111.785C152.53 111.7 152.622 111.589 152.686 111.462C152.75 111.335 152.782 111.194 152.782 111.052C152.781 110.91 152.747 110.77 152.683 110.643C152.053 109.647 150.503 109.771 149.522 109.88C148.542 109.989 146.668 109.76 146.145 110.752C146.083 110.874 146.059 111.013 146.079 111.148C146.099 111.284 146.16 111.411 146.254 111.51C146.69 111.951 148.216 111.844 149.305 111.951Z" fill="#191919" />
    <path d="M137.317 111.951C138.225 112.005 139.134 112.005 140.042 111.951C140.182 111.926 140.314 111.869 140.428 111.784C140.542 111.699 140.634 111.589 140.698 111.462C140.761 111.334 140.794 111.194 140.794 111.052C140.793 110.91 140.759 110.77 140.695 110.643C140.064 109.647 138.515 109.771 137.535 109.88C136.555 109.989 134.681 109.76 134.157 110.752C134.094 110.874 134.071 111.013 134.091 111.148C134.11 111.284 134.171 111.411 134.266 111.51C134.702 111.951 136.227 111.844 137.317 111.951Z" fill="#191919" />
    <path d="M140.363 118.271C141.27 118.325 142.18 118.325 143.088 118.271C143.228 118.246 143.36 118.19 143.474 118.105C143.588 118.02 143.68 117.909 143.744 117.782C143.808 117.655 143.84 117.515 143.84 117.373C143.84 117.231 143.806 117.091 143.742 116.964C143.111 115.967 141.562 116.092 140.581 116.206C139.6 116.32 137.727 116.085 137.204 117.077C137.141 117.199 137.118 117.337 137.138 117.473C137.157 117.609 137.218 117.735 137.313 117.835C137.752 118.383 139.278 118.162 140.363 118.271Z" fill="#191919" />
    <path d="M128.382 118.271C129.289 118.325 130.199 118.325 131.106 118.271C131.246 118.246 131.378 118.189 131.492 118.104C131.606 118.019 131.698 117.909 131.762 117.782C131.825 117.655 131.858 117.515 131.858 117.373C131.857 117.231 131.823 117.091 131.759 116.964C131.129 115.967 129.579 116.092 128.6 116.206C127.62 116.32 125.745 116.085 125.221 117.077C125.159 117.199 125.136 117.337 125.155 117.473C125.175 117.609 125.236 117.735 125.33 117.835C125.77 118.383 127.292 118.162 128.382 118.271Z" fill="#191919" />
    <path d="M103.536 20.8528C102.893 20.6386 101.892 20.8528 101.247 20.6348C100.484 20.6348 99.7212 20.5259 98.9583 20.5259C94.4509 20.5259 92.7981 20.4406 89.9132 20.8528C88.5428 20.9309 87.2051 21.3022 85.9906 21.9417C85.4213 22.2807 84.9319 22.7386 84.5557 23.284C84.1795 23.8294 83.9255 24.4496 83.8108 25.1021C83.7965 25.1665 83.795 25.2331 83.8064 25.2981C83.8178 25.3631 83.842 25.4252 83.8774 25.4808C83.9128 25.5365 83.9588 25.5846 84.0129 25.6225C84.0669 25.6604 84.1278 25.6872 84.1923 25.7015C84.2567 25.7158 84.3233 25.7173 84.3882 25.7059C84.4532 25.6945 84.5153 25.6704 84.571 25.6349C84.6266 25.5995 84.6748 25.5535 84.7126 25.4995C84.7505 25.4454 84.7774 25.3845 84.7917 25.3201C85.4949 23.0457 88.1665 22.3492 90.2402 22.1596C93.8663 21.8737 97.5078 21.8373 101.139 22.0507C101.935 22.1413 102.736 22.1777 103.537 22.1596C103.669 22.109 103.783 22.0194 103.863 21.9027C103.943 21.7859 103.986 21.6476 103.986 21.5059C103.986 21.3642 103.943 21.2259 103.863 21.1093C103.782 20.9927 103.668 20.9032 103.536 20.8528V20.8528Z" fill="#191919" />
    <path d="M180.144 91.9005C180.405 91.24 180.552 90.5403 180.58 89.8308C183.41 67.193 183.294 67.8801 184.067 58.9919C184.067 58.447 183.183 58.3361 183.087 58.8829C181.588 67.3513 178.836 88.85 178.51 91.1386C178.401 91.5736 178.404 92.1137 178.727 92.3364C179.499 92.869 179.926 92.5544 180.144 91.9005Z" fill="#191919" />
</svg>
    